<svg id="Слой_1" enable-background="new 0 0 512 512" height="512" viewBox="0 0 512 512" width="512" xmlns="http://www.w3.org/2000/svg"><g><g><circle cx="256" cy="256" fill="#fadb41" r="128"/></g><g><path d="m256 76.791c-14.15 0-25.6-11.463-25.6-25.6v-25.591c0-14.137 11.45-25.6 25.6-25.6s25.6 11.463 25.6 25.6v25.591c0 14.137-11.45 25.6-25.6 25.6z" fill="#fadb41"/></g><g><path d="m400.825 136.778c-6.55 0-13.1-2.5-18.1-7.5-10-9.997-10-26.206 0-36.203l18.1-18.097c10-9.994 26.2-9.997 36.2.003 10 9.997 10 26.206 0 36.203l-18.1 18.097c-5 4.997-11.55 7.497-18.1 7.497z" fill="#fadb41"/></g><g><path d="m486.4 281.6h-25.6c-14.15 0-25.6-11.463-25.6-25.6s11.45-25.6 25.6-25.6h25.6c14.15 0 25.6 11.463 25.6 25.6s-11.45 25.6-25.6 25.6z" fill="#fadb41"/></g><g><path d="m418.925 444.519c-6.55 0-13.1-2.497-18.1-7.497l-18.1-18.097c-10-9.997-10-26.206 0-36.203 10-10 26.2-10.003 36.2-.003l18.1 18.097c10 9.997 10 26.206 0 36.203-5 5-11.55 7.5-18.1 7.5z" fill="#fadb41"/></g><g><path d="m256 512c-14.15 0-25.6-11.463-25.6-25.6v-25.591c0-14.137 11.45-25.6 25.6-25.6s25.6 11.463 25.6 25.6v25.591c0 14.137-11.45 25.6-25.6 25.6z" fill="#fadb41"/></g><g><path d="m93.075 444.519c-6.55 0-13.1-2.5-18.1-7.5-10-9.997-10-26.206 0-36.203l18.1-18.097c10-9.994 26.2-9.997 36.2.003 10 9.997 10 26.206 0 36.203l-18.1 18.097c-5 4.997-11.55 7.497-18.1 7.497z" fill="#fadb41"/></g><g><path d="m51.2 281.6h-25.6c-14.15 0-25.6-11.463-25.6-25.6s11.45-25.6 25.6-25.6h25.6c14.15 0 25.6 11.463 25.6 25.6s-11.45 25.6-25.6 25.6z" fill="#fadb41"/></g><g><path d="m111.175 136.778c-6.55 0-13.1-2.497-18.1-7.497l-18.1-18.097c-10-9.997-10-26.206 0-36.203 10-10 26.2-10.003 36.2-.003l18.1 18.097c10 9.997 10 26.206 0 36.203-5 5-11.55 7.5-18.1 7.5z" fill="#fadb41"/></g></g></svg>