<?xml version="1.0"?>
<svg xmlns="http://www.w3.org/2000/svg" id="duotone_outline" viewBox="0 0 64 64"><path d="M35,62H29a5.006,5.006,0,0,1-5-5V54.63a23.88,23.88,0,0,1-2.343-.974l-1.678,1.678a5,5,0,0,1-7.071,0L8.666,51.092a5,5,0,0,1,0-7.071l1.678-1.678A24.086,24.086,0,0,1,9.37,40H7a5.006,5.006,0,0,1-5-5V29a5.006,5.006,0,0,1,5-5H9.37a23.941,23.941,0,0,1,.974-2.343L8.666,19.979a5,5,0,0,1,0-7.071l4.242-4.242a5,5,0,0,1,7.071,0l1.678,1.678A23.88,23.88,0,0,1,24,9.37V7a5.006,5.006,0,0,1,5-5h6a5.006,5.006,0,0,1,5,5V9.37a23.88,23.88,0,0,1,2.343.974l1.678-1.678a5,5,0,0,1,7.071,0l4.242,4.242a5,5,0,0,1,0,7.071l-1.678,1.678A23.941,23.941,0,0,1,54.63,24H57a5.006,5.006,0,0,1,5,5v6a5.006,5.006,0,0,1-5,5H54.63a24.086,24.086,0,0,1-.974,2.343l1.678,1.678a5,5,0,0,1,0,7.071l-4.242,4.242a5,5,0,0,1-7.071,0l-1.678-1.678A23.88,23.88,0,0,1,40,54.63V57A5.006,5.006,0,0,1,35,62ZM21.459,51.44a1,1,0,0,1,.459.112A21.935,21.935,0,0,0,25.3,52.96a1,1,0,0,1,.7.952V57a3,3,0,0,0,3,3h6a3,3,0,0,0,3-3V53.912a1,1,0,0,1,.7-.952,21.935,21.935,0,0,0,3.386-1.408,1,1,0,0,1,1.166.181l2.187,2.187a3.073,3.073,0,0,0,4.243,0l4.242-4.242a3,3,0,0,0,0-4.243l-2.187-2.187a1,1,0,0,1-.181-1.166A21.937,21.937,0,0,0,52.959,38.7a1,1,0,0,1,.953-.7H57a3,3,0,0,0,3-3V29a3,3,0,0,0-3-3H53.912a1,1,0,0,1-.953-.7,21.863,21.863,0,0,0-1.407-3.386,1,1,0,0,1,.181-1.166l2.187-2.187a3,3,0,0,0,0-4.243L49.678,10.08a3.073,3.073,0,0,0-4.243,0l-2.187,2.187a1,1,0,0,1-1.166.181A21.935,21.935,0,0,0,38.7,11.04a1,1,0,0,1-.7-.952V7a3,3,0,0,0-3-3H29a3,3,0,0,0-3,3v3.088a1,1,0,0,1-.7.952,21.935,21.935,0,0,0-3.386,1.408,1,1,0,0,1-1.166-.181L18.565,10.08a3.073,3.073,0,0,0-4.243,0L10.08,14.322a3,3,0,0,0,0,4.243l2.187,2.187a1,1,0,0,1,.181,1.166A21.863,21.863,0,0,0,11.041,25.3a1,1,0,0,1-.953.7H7a3,3,0,0,0-3,3v6a3,3,0,0,0,3,3h3.088a1,1,0,0,1,.953.7,21.937,21.937,0,0,0,1.407,3.386,1,1,0,0,1-.181,1.166L10.08,45.435a3,3,0,0,0,0,4.243l4.242,4.242a3.073,3.073,0,0,0,4.243,0l2.187-2.187A1,1,0,0,1,21.459,51.44Z" style="fill:#5e5e5e"/><path d="M32,45A13,13,0,1,1,45,32,13.015,13.015,0,0,1,32,45Zm0-24A11,11,0,1,0,43,32,11.013,11.013,0,0,0,32,21Z" style="fill:#ffce4a"/></svg>
