<svg id="Layer_11" height="512" viewBox="0 0 32 32" width="512" xmlns="http://www.w3.org/2000/svg" data-name="Layer 11"><path d="m16 5a1 1 0 0 0 1-1v-1a1 1 0 0 0 -2 0v1a1 1 0 0 0 1 1z"/><path d="m16 27a1 1 0 0 0 -1 1v1a1 1 0 0 0 2 0v-1a1 1 0 0 0 -1-1z"/><path d="m29 15h-1a1 1 0 0 0 0 2h1a1 1 0 0 0 0-2z"/><path d="m4 15h-1a1 1 0 0 0 0 2h1a1 1 0 0 0 0-2z"/><path d="m24.485 6.1-.707.707a1 1 0 1 0 1.414 1.414l.708-.706a1 1 0 0 0 -1.415-1.415z"/><path d="m6.808 23.778-.708.707a1 1 0 1 0 1.415 1.415l.707-.707a1 1 0 0 0 -1.414-1.415z"/><path d="m25.192 23.778a1 1 0 0 0 -1.414 1.414l.707.708a1 1 0 0 0 1.415-1.415z"/><path d="m6.808 8.222a1 1 0 0 0 1.414-1.414l-.707-.708a1 1 0 0 0 -1.415 1.415z"/><path d="m24.7 17.483a1 1 0 0 0 -1-.243 6.917 6.917 0 0 1 -2.072.308 7.185 7.185 0 0 1 -7.178-7.177 6.911 6.911 0 0 1 .31-2.071 1 1 0 0 0 -1.241-1.257 9.176 9.176 0 1 0 11.439 11.44 1 1 0 0 0 -.258-1z"/></svg>